<svg xmlns="http://www.w3.org/2000/svg" version="1.0" width="225.000000pt" height="225.000000pt" viewBox="0 0 225.000000 225.000000" preserveAspectRatio="xMidYMid meet">

<g transform="translate(0.000000,225.000000) scale(0.100000,-0.100000)" fill="#d41d1d" stroke="none">
<path d="M810 1430 c-12 -12 -20 -33 -20 -55 0 -54 28 -75 100 -75 l60 0 0 49 c0 67 -27 101 -81 101 -26 0 -46 -7 -59 -20z m72 -30 c25 -19 41 -54 30 -65 -3 -3 -11 8 -18 24 -8 19 -23 33 -38 37 -14 3 -26 10 -26 15 0 15 26 10 52 -11z m-8 -29 c10 -11 15 -25 10 -32 -5 -9 -10 -6 -15 9 -5 12 -15 22 -24 22 -8 0 -15 5 -15 10 0 17 26 11 44 -9z m-23 -24 c-1 -12 -15 -9 -19 4 -3 6 1 10 8 8 6 -3 11 -8 11 -12z" fill="#d41d1d"/>
<path d="M255 1178 c-4 -84 -5 -171 -3 -193 l3 -40 48 -3 48 -3 -2 54 c-3 67 2 75 52 83 l39 7 0 49 c0 44 -2 49 -17 43 -10 -4 -33 -9 -50 -12 -30 -5 -33 -3 -33 20 0 37 28 49 94 41 l55 -7 3 -136 3 -136 36 -3 c23 -2 38 2 41 10 5 13 -18 357 -24 363 -2 2 -15 6 -30 10 -23 6 -27 4 -31 -22 l-4 -28 -2 28 -1 27 -109 0 -109 0 -7 -152z" fill="#d41d1d"/>
<path d="M602 1313 c-13 -25 3 -63 26 -63 31 0 47 26 34 55 -13 29 -47 33 -60 8z" fill="#d41d1d"/>
<path d="M960 1286 l0 -43 50 -7 50 -7 0 -143 0 -144 34 -6 c67 -13 69 -9 61 135 -9 147 -4 159 56 159 46 0 53 9 44 60 l-7 40 -144 0 -144 0 0 -44z" fill="#d41d1d"/>
<path d="M1513 1318 c1 -42 -6 -130 -10 -115 -3 12 -15 17 -39 17 l-34 0 0 -83 c0 -110 -30 -155 -74 -111 -12 12 -16 37 -16 105 0 81 -2 89 -19 89 -11 0 -26 3 -35 6 -14 5 -16 -7 -16 -100 0 -186 13 -195 276 -191 196 2 198 3 271 68 l22 20 47 -41 c49 -44 93 -58 148 -48 38 7 86 56 86 87 0 16 -7 19 -40 19 -29 0 -40 -4 -40 -15 0 -11 -12 -15 -51 -15 -43 0 -50 3 -47 17 5 29 48 43 95 33 26 -6 51 -6 67 0 22 8 24 13 17 38 -26 88 -63 122 -134 122 -72 0 -116 -25 -139 -77 l-19 -44 -25 50 c-40 80 -116 102 -181 51 -14 -11 -30 -20 -34 -20 -5 0 -9 34 -9 75 l0 75 -34 0 c-21 0 -34 -5 -33 -12z m517 -179 c0 -30 -2 -31 -31 -25 -17 3 -38 6 -45 6 -8 0 -14 4 -14 9 0 19 32 41 61 41 26 0 29 -3 29 -31z m-274 -66 c-4 -37 -9 -69 -10 -71 -2 -2 -32 0 -66 4 l-62 7 6 44 c10 74 19 83 83 83 l56 0 -7 -67z" fill="#d41d1d"/>
<path d="M700 1223 c0 -1 16 -32 35 -67 19 -36 35 -70 35 -75 0 -5 -16 -37 -35 -70 -19 -32 -35 -62 -35 -65 0 -3 19 -6 43 -6 31 0 45 5 55 20 7 11 19 20 27 20 8 0 19 -9 25 -20 8 -15 21 -20 50 -20 22 0 40 4 40 8 0 4 -12 24 -26 43 -55 74 -57 82 -29 151 14 34 25 65 25 70 0 4 -15 8 -34 8 -29 0 -35 -5 -48 -37 l-15 -38 -15 36 c-14 32 -21 37 -57 41 -23 2 -41 2 -41 1z" fill="#d41d1d"/>
<path d="M594 1204 c3 -9 6 -72 6 -140 l0 -124 47 0 46 0 -6 98 c-4 53 -7 116 -7 140 l0 42 -46 0 c-38 0 -45 -3 -40 -16z" fill="#d41d1d"/>
</g>
</svg>